<svg xmlns="http://www.w3.org/2000/svg" version="1.1" xmlns:xlink="http://www.w3.org/1999/xlink" xmlns:svgjs="http://svgjs.dev/svgjs" width="95.51" height="177.65"><svg id="SvgjsSvg1005" data-name="Capa 2" xmlns="http://www.w3.org/2000/svg" viewBox="0 0 95.51 177.65">
  <defs>
    <style>
      .cls-1 {
        fill: none;
        stroke: #2f3e94;
        stroke-miterlimit: 10;
        stroke-width: 5px;
      }

      .cls-2 {
        fill: #2f3e94;
      }
    </style>
  </defs>
  <g id="SvgjsG1004" data-name="Layer 8">
    <g>
      <path class="cls-1" d="M39.13,32.79c-7.59-14.21-18.88-19.81-24.93-16.36-4.97,2.84-7.05,12.16-5.43,19.02,1.38,5.88,7.68,11.46,20.21,22.39,1.46,1.28,4.91,2.12,6.52,5.54,1.35,2.87.29,4.49,1.74,8.19.41,1.06,2.22,5.68,5.65,6.5,3.33.8,6.43-2.4,7.61-3.61,3.04-3.13,3.11-5.72,8.26-16.13,1.35-2.73,2.53-4.95,4.56-5.3,1.69-.29,3.22.85,4.13,1.69"></path>
      <path class="cls-1" d="M77.02,50.38c-.37,2.47-.96,6.34-1.74,11.08-3.11,18.92-4.23,21.32-3.48,26.49.78,5.33,2.32,5.2,8.91,18.3,5.72,11.39,8.59,17.08,9.78,22.88,2.21,10.72,1.74,28.55-8.26,36.36-5.83,4.55-13.75,4.81-15.87,4.82-4.05,0-5.24-.91-8.91-1.44-11.18-1.62-14.14,4.86-27.17,6.02-4.96.44-13.25,1.05-20.21-4.58-.57-.46-8.92-7.38-7.39-14.21,1.07-4.78,6.41-7.01,9.35-8.19,14.05-5.64,27.76,1.62,28.47-.48.61-1.8-10.09-4.94-15.43-16.13-1.83-3.84-2.34-7.17-3.04-11.8-1.28-8.45-2.39-15.74,1.09-22.88,3-6.15,8.57-10.45,12.39-12.04.64-.27,2.42-.95,5.22-2.17,2.71-1.18,4.9-2.21,6.3-2.89"></path>
      <path class="cls-1" d="M47.46,92.52c-2.35,4.18-5.26,10.35-7.17,18.3-2.22,9.24-2.9,20.13-.65,20.95,2.03.74,4.51-4.03,5.97-3.13.51.32,1.57-1.56,2.07.48.41,1.66,1.55,4.67,2.83,4.82,2.5.28,3.45-5.84,4.49-5.54.87.25.63,3.03,2.25,3.85,1.27.65,4.75-2.7,5.87-6.98,1.14-4.36-.67-7.77-2.39-13.24-1.26-4-2.73-9.96-3.26-17.82"></path>
      <path class="cls-1" d="M21.26,102.19c-4.38,2.36-6.33,4.66-6.84,5.98-.22.56-.48,1.76-1.01,4.17-1.33,6.04-1.02,6.77-.72,7.14,1.23,1.53,6.23-1.3,6.52-.4.21.66-3.21,2.64-3.67,4.87-.08.41-.27,1.36.19,2.27.38.76,1.2,1.46,1.98,1.36.71-.09,3.27-3.08,3.38-2.97.17.16-2.02,4.67-1.69,5.65.19.56-.35-.13,0,0,1.82.65,4.29-.2,4.95-.64"></path>
      <g id="SvgjsG1003">
        <path class="cls-1" d="M54.99,41.64c-2.39-7.37-3-13.24-3.08-17.36-.05-2.66.07-6.73-1.74-11.28,0-.02-.02-.05-.03-.07-1.09-2.7-4.31-2.73-5.44-.05-.86,2.02-1.69,4.23-2.46,6.61-3.13,9.69-3.95,18.48-4.06,24.8"></path>
        <path class="cls-2" d="M54.99,41.64c-.12-.84-1.64-11.46-4.38-11.61-2.72-.15-6.97,9.95-3.98,13.29.27.3,1.63,1.69,5.18.92"></path>
        <path class="cls-1" d="M31.38,21.97c-.07-7.63,4.4-12.38,7.5-12.04,2.6.29,4.51-.67,4.96,4.68"></path>
        <path class="cls-1" d="M36.37,27.87c-.29-1.25-.97-4.23.54-6.38.28-.4,1.11-1.57,2.39-1.57.95,0,1.94.65,2.31,1.58.43,1.1-1.36,1.78-1.21,4.59.24,4.38-1.39,5.58-2.08,5.63-.88.06-1.69-2.71-1.96-3.85Z"></path>
      </g>
      <path class="cls-1" d="M56.44,17.47c.26-.54,1.03-1.99,2.46-2.41,1.95-.57,3.73,1.16,4.35,1.77,1.79,1.74,2.8,4.35,3.48,12.84.26,3.29.49,7.6.43,12.68"></path>
      <path class="cls-1" d="M56.91,16.47c.48-.31,1.76-1.21,2.09-2.81.45-2.17-1.18-4.09-1.74-4.75-1.63-1.93-4.02-2.95-11.7-3.41-2.98-.18,4.58-.24,0,0"></path>
      <path class="cls-1" d="M67.91,14.95c1.95-.57,1.38,2.72,2,3.32,1.79,1.74,2.36,4.95,3.04,13.45.26,3.29-2.12,5.55-2.17,10.63"></path>
      <path class="cls-1" d="M70.79,12.01c-.06-1.83-.7-2.92-1.01-3.37-1.04-1.5-2.57-1.94-4.2-2.41-1.38-.4-2.56-.48-3.33-.48"></path>
      <path class="cls-1" d="M77.45,13.46c-1.55-3.05-3.09-6.1-4.64-9.15"></path>
      <path class="cls-1" d="M75.86,14.42c.7,1.9,1.49,4.34,2.17,7.22.59,2.46,1.28,5.47,1.45,9.47.11,2.73.19,4.95-.58,7.71-.64,2.3-1.59,4.03-2.32,5.14"></path>
      <path class="cls-1" d="M81.51,17.79c1.46-3.14,2.84-5.68,3.91-7.55,3.04-5.26,4.39-6.42,5.8-7.06,1.58-.73,3.08-.74,4.06-.64"></path>
      <path class="cls-1" d="M81.51,17.79c.86-.37,2.27-.97,4.06-1.61,2.76-.98,3.81-1.14,4.64-2.25.42-.57,1.04-1.74.87-4.01"></path>
    </g>
  </g>
</svg><style>@media (prefers-color-scheme: light) { :root { filter: none; } }
@media (prefers-color-scheme: dark) { :root { filter: none; } }
</style></svg>